<?xml version="1.0" encoding="utf-8"?>
<!-- Generator: Adobe Illustrator 25.4.1, SVG Export Plug-In . SVG Version: 6.00 Build 0)  -->
<svg version="1.1" id="Layer_1" xmlns="http://www.w3.org/2000/svg" xmlns:xlink="http://www.w3.org/1999/xlink" x="0px" y="0px"
	 viewBox="0 0 390.6 381.2" style="enable-background:new 0 0 390.6 381.2;" xml:space="preserve">
<style type="text/css">
	.st0{opacity:0.1;fill:#FFFFFF;enable-background:new    ;}
	.st1{fill:#FFFFFF;}
</style>
<g id="Layer_2_00000155143913429278342770000006126950658545639082_">
	<g id="Layer_1-2">
		<path class="st0" d="M56.3,0h277.9c31.1,0,56.3,25.2,56.3,56.3v268.6c0,31.1-25.2,56.3-56.3,56.3H56.3C25.2,381.2,0,356,0,324.9
			V56.3C0,25.2,25.2,0,56.3,0z"/>
		<path class="st1" d="M125.4,83.7c-10.6,0.3-19.5-8.1-19.8-18.7c0-0.3,0-0.7,0-1c-0.2-10.6,8.2-19.4,18.8-19.6c0.3,0,0.6,0,0.9,0
			c3.3,0,6.6,0.8,9.5,2.5c2.8,1.6,5.2,3.9,6.8,6.7l-4.4,2.5c-1.1-2.1-2.8-3.8-4.8-5c-2.2-1.3-4.6-1.9-7.1-1.9
			c-7.9-0.3-14.5,5.8-14.8,13.7c0,0.3,0,0.7,0,1c-0.2,7.9,6,14.5,13.8,14.7c0.3,0,0.6,0,1,0c2.5,0,4.9-0.6,7.1-1.9
			c2.1-1.1,3.7-2.9,4.8-4.9l4.4,2.5c-1.6,2.8-3.9,5.2-6.7,6.8C132.1,82.8,128.8,83.7,125.4,83.7z"/>
		<path class="st1" d="M148.4,82.9V43.5h4.7v39.4H148.4z"/>
		<path class="st1" d="M184.4,79.5c-5.6,5.5-14.6,5.5-20.2,0c-5.5-5.6-5.5-14.6,0-20.2c5.6-5.6,14.6-5.6,20.2,0
			c2.7,2.7,4.2,6.3,4.2,10.1C188.7,73.2,187.2,76.9,184.4,79.5z M174.3,79.1c5.4-0.1,9.6-4.5,9.6-9.8c0-2.5-1-4.9-2.8-6.6
			c-3.8-3.7-9.9-3.7-13.6,0.1c-3.7,3.8-3.7,9.9,0.1,13.6C169.3,78.1,171.8,79.1,174.3,79.1L174.3,79.1z"/>
		<path class="st1" d="M214.1,55.9h4.7v27h-4.7v-3.9c-1.8,3-5.2,4.8-8.8,4.6c-2.8,0.1-5.6-1-7.6-3c-2-2.2-3-5.1-2.9-8.1V55.9h4.7
			v16.3c-0.1,1.9,0.5,3.7,1.8,5.1c1.3,1.3,3.1,1.9,4.9,1.8c2.1,0.1,4.2-0.7,5.7-2.2c1.4-1.5,2.2-3.7,2.2-6.7L214.1,55.9z"/>
		<path class="st1" d="M249.6,45.1h4.7v37.8h-4.7v-4.6c-2.2,3.5-6.1,5.5-10.2,5.3c-3.7,0.1-7.2-1.5-9.7-4.1
			c-5.3-5.7-5.3-14.5,0-20.1c2.5-2.7,6-4.2,9.7-4.1c4.1-0.2,8,1.9,10.2,5.3V45.1z M240,79.1c2.6,0.1,5.1-0.9,6.9-2.8
			c3.7-3.9,3.7-9.9,0-13.8c-3.8-3.7-9.9-3.7-13.7,0c-3.7,3.9-3.7,9.9,0,13.8C235,78.2,237.5,79.2,240,79.1L240,79.1z"/>
		<path class="st1" d="M281.7,55.9h5l-11,28.7c-0.9,2.7-2.6,5.2-4.8,7c-2,1.6-4.6,2.3-7.2,2.1v-4.4c3.3,0.3,5.7-1.6,7.3-5.5l0.5-1
			l-11.8-26.9h5l9,20.7L281.7,55.9z"/>
		<path class="st1" d="M107.2,231.7h4.8c2.6-18.6,19.7-31.6,38.3-29c3.1,0.4,6.1,1.3,8.9,2.5c6.1-27.3,33.2-44.5,60.5-38.4
			c15.5,3.5,28.5,14,35.1,28.5c2.4-0.6,4.9-1,7.4-1c16.4-0.1,29.7,13.2,29.7,29.5c0,4.4-1,8.8-2.9,12.8c14.3,9.2,18.4,28.2,9.2,42.5
			c-5.7,8.8-15.4,14.1-25.8,14.1H107.2c-17,0.3-31-13.2-31.3-30.2c-0.3-17,13.2-31,30.2-31.3C106.5,231.7,106.8,231.7,107.2,231.7z"
			/>
		
			<image style="overflow:visible;enable-background:new    ;" width="1270" height="858" xlink:href="713DACED5CB6A182.png"  transform="matrix(0.24 0 0 0.24 36.33 126.26)">
		</image>
	</g>
</g>
</svg>
