<?xml version="1.0" encoding="utf-8"?>
<!-- Generator: Adobe Illustrator 25.4.1, SVG Export Plug-In . SVG Version: 6.00 Build 0)  -->
<svg version="1.1" id="Layer_1" xmlns="http://www.w3.org/2000/svg" xmlns:xlink="http://www.w3.org/1999/xlink" x="0px" y="0px"
	 viewBox="0 0 390.6 381.2" style="enable-background:new 0 0 390.6 381.2;" xml:space="preserve">
<style type="text/css">
	.st0{opacity:0.1;fill:#FFFFFF;enable-background:new    ;}
	.st1{fill:#FFFFFF;}
	.st2{fill:#EBA725;}
	.st3{fill:none;stroke:#EBA725;stroke-width:5;stroke-linecap:round;stroke-linejoin:round;}
</style>
<g id="Layer_2_00000000183652844909509180000014561178306044773796_">
	<g id="Layer_1-2">
		<path class="st0" d="M56.3,0h277.9c31.1,0,56.3,25.2,56.3,56.3v268.6c0,31.1-25.2,56.3-56.3,56.3H56.3C25.2,381.2,0,356,0,324.9
			V56.3C0,25.2,25.2,0,56.3,0z"/>
		<path class="st1" d="M134,83.7c-3.2,0.1-6.4-0.8-9.1-2.5c-2.5-1.6-4.3-4-5.3-6.8l4.3-2.5c1.5,4.6,4.8,6.9,10.1,6.9
			c2.1,0.1,4.2-0.4,5.9-1.6c1.3-1,2.1-2.6,2.1-4.2c0.1-1.6-0.7-3.2-2.1-4.1c-2.1-1.2-4.4-2.2-6.8-2.8l-3.6-1.2
			c-1.1-0.4-2.1-0.9-3.1-1.4c-1-0.5-2-1.1-2.8-1.9c-0.7-0.8-1.3-1.7-1.7-2.6c-0.5-1.2-0.7-2.4-0.7-3.7c-0.1-3,1.2-5.9,3.4-7.8
			c2.4-1.9,5.4-3,8.4-2.9c2.8-0.1,5.5,0.7,7.9,2.3c2.2,1.5,3.9,3.6,5,6l-4.2,2.4c-1.6-3.9-4.5-5.8-8.6-5.8c-1.8-0.1-3.6,0.4-5,1.5
			c-1.2,1-1.9,2.5-1.9,4.1c-0.1,1.5,0.6,2.9,1.8,3.8c1.9,1.2,4,2.1,6.2,2.7l2.2,0.8l2.1,0.7c0.7,0.2,1.3,0.5,2,0.8
			c0.4,0.2,1,0.5,1.8,0.9c0.6,0.3,1.1,0.7,1.6,1.1c0.4,0.4,0.8,0.8,1.3,1.3c0.4,0.5,0.8,1,1.1,1.6c0.2,0.6,0.4,1.2,0.6,1.9
			c0.2,0.7,0.2,1.5,0.2,2.2c0.1,3.1-1.2,6-3.6,7.9C140.7,82.8,137.4,83.8,134,83.7z"/>
		<path class="st1" d="M172.5,55.9h4.7v27h-4.7v-3.9c-1.8,3-5.2,4.8-8.8,4.6c-2.9,0.1-5.6-1-7.6-3c-2-2.2-3-5.1-2.9-8.1V55.9h4.7
			v16.3c-0.1,1.9,0.5,3.7,1.8,5.1c1.3,1.3,3.1,1.9,4.9,1.8c2.1,0.1,4.1-0.7,5.6-2.2c1.4-1.5,2.2-3.7,2.2-6.7V55.9z"/>
		<path class="st1" d="M199.1,55.2c2.8-0.1,5.6,1,7.6,3c2,2.2,3,5.1,2.9,8.1v16.6h-4.7V66.6c0.1-1.9-0.5-3.7-1.8-5.1
			c-1.3-1.3-3.1-1.9-4.9-1.8c-2.1-0.1-4.2,0.7-5.7,2.2c-1.4,1.5-2.2,3.7-2.2,6.7v14.3h-4.7v-27h4.7v3.9
			C192.2,56.8,195.6,55,199.1,55.2z"/>
		<path class="st1" d="M230.9,55.2c2.9-0.1,5.6,1,7.6,3c2,2.2,3,5.1,2.9,8.1v16.6h-4.7V66.6c0.1-1.9-0.5-3.7-1.8-5.1
			c-1.3-1.3-3.1-1.9-4.9-1.8c-2.1-0.1-4.2,0.7-5.7,2.2c-1.4,1.5-2.2,3.7-2.2,6.7v14.3h-4.7v-27h4.7v3.9
			C224.1,56.8,227,55.2,230.9,55.2z"/>
		<path class="st1" d="M267.5,55.9h5l-11,28.7c-0.9,2.7-2.6,5.2-4.8,7c-2,1.6-4.6,2.3-7.2,2.1v-4.4c3.3,0.3,5.8-1.6,7.3-5.5l0.5-1
			L245.6,56h5l9,20.7L267.5,55.9z"/>
		<circle class="st2" cx="196.3" cy="230.2" r="66.3"/>
		
			<image style="overflow:visible;enable-background:new    ;" width="875" height="874" xlink:href="4848AE1DE0D463D.png"  transform="matrix(0.24 0 0 0.24 91.29 125.3)">
		</image>
		<line class="st3" x1="196.3" y1="112.4" x2="196.3" y2="154.2"/>
		<line class="st3" x1="94.3" y1="171.3" x2="130.5" y2="192.2"/>
		<line class="st3" x1="94.3" y1="289.1" x2="130.5" y2="268.3"/>
		<line class="st3" x1="196.3" y1="348" x2="196.3" y2="306.3"/>
		<line class="st3" x1="298.4" y1="289.1" x2="262.2" y2="268.3"/>
		<line class="st3" x1="298.4" y1="171.3" x2="262.2" y2="192.2"/>
		<line class="st3" x1="144.7" y1="140.9" x2="163" y2="172.6"/>
		<line class="st3" x1="93.1" y1="230.2" x2="129.7" y2="230.2"/>
		<line class="st3" x1="144.7" y1="319.6" x2="163" y2="287.9"/>
		<line class="st3" x1="247.9" y1="319.6" x2="229.6" y2="287.9"/>
		<line class="st3" x1="299.5" y1="230.2" x2="262.9" y2="230.2"/>
		<line class="st3" x1="247.9" y1="140.9" x2="229.6" y2="172.6"/>
	</g>
</g>
</svg>
