<svg xmlns="http://www.w3.org/2000/svg" viewBox="0 0 438.41 54.87"><g id="Layer_2" data-name="Layer 2"><g id="Layer_1-2" data-name="Layer 1"><path d="M8.58,14.92H6.69l-4-4.15v4.15H1.16V2.63H2.69V10L6.48,6.14h2L4.25,10.39Z" transform="translate(-1.16 -2.63)" fill="#fff"/><path d="M19.93,5.92a3.15,3.15,0,0,1,2.38,1,3.6,3.6,0,0,1,.92,2.59v5.46H21.7V9.52a2.22,2.22,0,0,0-.53-1.58,1.82,1.82,0,0,0-1.4-.57A2,2,0,0,0,18.2,8a2.91,2.91,0,0,0-.59,2v4.88H16.08V9.52a2.25,2.25,0,0,0-.5-1.58,1.72,1.72,0,0,0-1.36-.57A2.17,2.17,0,0,0,12.61,8,2.82,2.82,0,0,0,12,10v4.88H10.45V6.14H12V7.32a2.91,2.91,0,0,1,2.62-1.4,2.72,2.72,0,0,1,2.58,1.49A3,3,0,0,1,19.93,5.92Z" transform="translate(-1.16 -2.63)" fill="#fff"/><path d="M10.54,55.58a4.51,4.51,0,0,1-3.88,1.93,4.5,4.5,0,0,1-3.87-1.93,8.67,8.67,0,0,1-1.38-5.14A8.65,8.65,0,0,1,2.79,45.3a4.48,4.48,0,0,1,3.87-1.93,4.48,4.48,0,0,1,3.88,1.93,8.65,8.65,0,0,1,1.38,5.14A8.67,8.67,0,0,1,10.54,55.58ZM4.11,54.35a2.88,2.88,0,0,0,2.55,1.39,2.91,2.91,0,0,0,2.57-1.39,7.14,7.14,0,0,0,.9-3.91,7.23,7.23,0,0,0-.9-3.93,2.91,2.91,0,0,0-2.57-1.39A2.87,2.87,0,0,0,4.11,46.5a7.34,7.34,0,0,0-.89,3.94A7.23,7.23,0,0,0,4.11,54.35Z" transform="translate(-1.16 -2.63)" fill="#fff"/><path d="M18,57.25V43h1.69V57.25Z" transform="translate(-1.16 -2.63)" fill="#fff" opacity="0.2"/><path d="M26.16,57.25V43h1.69V57.25Z" transform="translate(-1.16 -2.63)" fill="#fff" opacity="0.2"/><path d="M34.34,57.25V43H36V57.25Z" transform="translate(-1.16 -2.63)" fill="#fff" opacity="0.2"/><path d="M42.51,57.25V43h1.7V57.25Z" transform="translate(-1.16 -2.63)" fill="#fff" opacity="0.2"/><path d="M50.69,57.25V43h1.7V57.25Z" transform="translate(-1.16 -2.63)" fill="#fff" opacity="0.2"/><path d="M58.87,57.25V43h1.7V57.25Z" transform="translate(-1.16 -2.63)" fill="#fff" opacity="0.2"/><path d="M67.05,57.25V43h1.7V57.25Z" transform="translate(-1.16 -2.63)" fill="#fff" opacity="0.2"/><path d="M75.23,57.25V43h1.69V57.25Z" transform="translate(-1.16 -2.63)" fill="#fff" opacity="0.2"/><path d="M83.41,57.25V43H85.1V57.25Z" transform="translate(-1.16 -2.63)" fill="#fff" opacity="0.2"/><path d="M94.16,43.62h1.56V57.25h-1.8V45.57l-2.9.86-.45-1.56Z" transform="translate(-1.16 -2.63)" fill="#fff"/><path d="M111.14,55.58a4.86,4.86,0,0,1-7.75,0A8.67,8.67,0,0,1,102,50.44a8.65,8.65,0,0,1,1.39-5.14,4.86,4.86,0,0,1,7.75,0,8.65,8.65,0,0,1,1.38,5.14A8.67,8.67,0,0,1,111.14,55.58Zm-6.43-1.23a3,3,0,0,0,5.11,0,7,7,0,0,0,.91-3.91,7.14,7.14,0,0,0-.91-3.93,3,3,0,0,0-5.11,0,7.34,7.34,0,0,0-.89,3.94A7.23,7.23,0,0,0,104.71,54.35Z" transform="translate(-1.16 -2.63)" fill="#fff"/><path d="M118.58,57.25V43h1.69V57.25Z" transform="translate(-1.16 -2.63)" fill="#fff" opacity="0.2"/><path d="M126.75,57.25V43h1.7V57.25Z" transform="translate(-1.16 -2.63)" fill="#fff" opacity="0.2"/><path d="M134.93,57.25V43h1.7V57.25Z" transform="translate(-1.16 -2.63)" fill="#fff" opacity="0.2"/><path d="M143.11,57.25V43h1.7V57.25Z" transform="translate(-1.16 -2.63)" fill="#fff" opacity="0.2"/><path d="M151.29,57.25V43H153V57.25Z" transform="translate(-1.16 -2.63)" fill="#fff" opacity="0.2"/><path d="M159.47,57.25V43h1.69V57.25Z" transform="translate(-1.16 -2.63)" fill="#fff" opacity="0.2"/><path d="M167.65,57.25V43h1.69V57.25Z" transform="translate(-1.16 -2.63)" fill="#fff" opacity="0.2"/><path d="M175.83,57.25V43h1.69V57.25Z" transform="translate(-1.16 -2.63)" fill="#fff" opacity="0.2"/><path d="M184,57.25V43h1.69V57.25Z" transform="translate(-1.16 -2.63)" fill="#fff" opacity="0.2"/><path d="M191.6,57.25V55.77l4.81-4.9c1.29-1.29,1.93-2.39,1.93-3.31a2.35,2.35,0,0,0-.7-1.8,2.49,2.49,0,0,0-1.72-.64,2.92,2.92,0,0,0-2.8,1.83l-1.52-.89a4.56,4.56,0,0,1,1.78-2,4.86,4.86,0,0,1,2.52-.68,4.33,4.33,0,0,1,3,1.13,3.84,3.84,0,0,1,1.27,3q0,2.05-2.43,4.5l-3.48,3.46h6.16v1.75Z" transform="translate(-1.16 -2.63)" fill="#fff"/><path d="M214.87,55.58a4.86,4.86,0,0,1-7.75,0,8.67,8.67,0,0,1-1.38-5.14,8.65,8.65,0,0,1,1.38-5.14,4.86,4.86,0,0,1,7.75,0,8.65,8.65,0,0,1,1.38,5.14A8.67,8.67,0,0,1,214.87,55.58Zm-6.42-1.23A2.86,2.86,0,0,0,211,55.74a2.91,2.91,0,0,0,2.56-1.39,7.14,7.14,0,0,0,.9-3.91,7.23,7.23,0,0,0-.9-3.93A2.91,2.91,0,0,0,211,45.12a2.85,2.85,0,0,0-2.55,1.38,7.25,7.25,0,0,0-.9,3.94A7.14,7.14,0,0,0,208.45,54.35Z" transform="translate(-1.16 -2.63)" fill="#fff"/><path d="M222.31,57.25V43H224V57.25Z" transform="translate(-1.16 -2.63)" fill="#fff" opacity="0.2"/><path d="M230.49,57.25V43h1.69V57.25Z" transform="translate(-1.16 -2.63)" fill="#fff" opacity="0.2"/><path d="M238.67,57.25V43h1.69V57.25Z" transform="translate(-1.16 -2.63)" fill="#fff" opacity="0.2"/><path d="M246.85,57.25V43h1.69V57.25Z" transform="translate(-1.16 -2.63)" fill="#fff" opacity="0.2"/><path d="M255,57.25V43h1.69V57.25Z" transform="translate(-1.16 -2.63)" fill="#fff" opacity="0.2"/><path d="M263.2,57.25V43h1.7V57.25Z" transform="translate(-1.16 -2.63)" fill="#fff" opacity="0.2"/><path d="M271.38,57.25V43h1.7V57.25Z" transform="translate(-1.16 -2.63)" fill="#fff" opacity="0.2"/><path d="M279.56,57.25V43h1.7V57.25Z" transform="translate(-1.16 -2.63)" fill="#fff" opacity="0.2"/><path d="M287.74,57.25V43h1.69V57.25Z" transform="translate(-1.16 -2.63)" fill="#fff" opacity="0.2"/><path d="M300.78,49.21a4.58,4.58,0,0,1,2.56,1.34,3.74,3.74,0,0,1,1,2.67A3.89,3.89,0,0,1,303,56.36a5,5,0,0,1-3.31,1.15,5.41,5.41,0,0,1-2.77-.71,4,4,0,0,1-1.71-2.06l1.52-.89a2.74,2.74,0,0,0,3,1.89,3.13,3.13,0,0,0,2.06-.67,2.28,2.28,0,0,0,.8-1.85,2.31,2.31,0,0,0-.8-1.86,3.13,3.13,0,0,0-2.06-.67h-.47l-.72-1.11,3.15-4.26h-6.05v-1.7h8.18v1.59Z" transform="translate(-1.16 -2.63)" fill="#fff"/><path d="M319,55.58a4.86,4.86,0,0,1-7.75,0,8.6,8.6,0,0,1-1.39-5.14,8.58,8.58,0,0,1,1.39-5.14,4.86,4.86,0,0,1,7.75,0,8.65,8.65,0,0,1,1.38,5.14A8.67,8.67,0,0,1,319,55.58Zm-6.43-1.23a3,3,0,0,0,5.11,0,7,7,0,0,0,.91-3.91,7.14,7.14,0,0,0-.91-3.93,3,3,0,0,0-5.11,0,7.25,7.25,0,0,0-.9,3.94A7.14,7.14,0,0,0,312.53,54.35Z" transform="translate(-1.16 -2.63)" fill="#fff"/><path d="M326.39,57.25V43h1.7V57.25Z" transform="translate(-1.16 -2.63)" fill="#fff" opacity="0.2"/><path d="M334.57,57.25V43h1.7V57.25Z" transform="translate(-1.16 -2.63)" fill="#fff" opacity="0.2"/><path d="M342.75,57.25V43h1.7V57.25Z" transform="translate(-1.16 -2.63)" fill="#fff" opacity="0.2"/><path d="M350.93,57.25V43h1.69V57.25Z" transform="translate(-1.16 -2.63)" fill="#fff" opacity="0.2"/><path d="M359.11,57.25V43h1.69V57.25Z" transform="translate(-1.16 -2.63)" fill="#fff" opacity="0.2"/><path d="M367.29,57.25V43H369V57.25Z" transform="translate(-1.16 -2.63)" fill="#fff" opacity="0.2"/><path d="M375.47,57.25V43h1.69V57.25Z" transform="translate(-1.16 -2.63)" fill="#fff" opacity="0.2"/><path d="M383.65,57.25V43h1.69V57.25Z" transform="translate(-1.16 -2.63)" fill="#fff" opacity="0.2"/><path d="M391.82,57.25V43h1.7V57.25Z" transform="translate(-1.16 -2.63)" fill="#fff" opacity="0.2"/><path d="M409.6,53v1.69H408v2.59h-1.81V54.66h-6.95V53l4.88-9.35H406L401.13,53h5V49.11H408V53Z" transform="translate(-1.16 -2.63)" fill="#fff"/><path d="M423.92,55.58a4.86,4.86,0,0,1-7.75,0,8.6,8.6,0,0,1-1.39-5.14,8.58,8.58,0,0,1,1.39-5.14,4.86,4.86,0,0,1,7.75,0,8.65,8.65,0,0,1,1.38,5.14A8.67,8.67,0,0,1,423.92,55.58Zm-6.43-1.23a3,3,0,0,0,5.11,0,7,7,0,0,0,.91-3.91,7.14,7.14,0,0,0-.91-3.93,3,3,0,0,0-5.11,0,7.25,7.25,0,0,0-.9,3.94A7.14,7.14,0,0,0,417.49,54.35Z" transform="translate(-1.16 -2.63)" fill="#fff"/><path d="M439.57,49.62v1.62h-3.39v3.38h-1.61V51.24H431.2V49.62h3.37V46.25h1.61v3.37Z" transform="translate(-1.16 -2.63)" fill="#fff"/></g></g></svg>