<?xml version="1.0" encoding="utf-8"?>
<!-- Generator: Adobe Illustrator 25.4.1, SVG Export Plug-In . SVG Version: 6.00 Build 0)  -->
<svg version="1.1" id="Layer_1" xmlns="http://www.w3.org/2000/svg" xmlns:xlink="http://www.w3.org/1999/xlink" x="0px" y="0px"
	 viewBox="0 0 438.4 69.2" style="enable-background:new 0 0 438.4 69.2;" xml:space="preserve">
<style type="text/css">
	.st0{fill:none;stroke:#FFFFFF;stroke-width:2;stroke-miterlimit:10;}
	.st1{fill:#FFFFFF;}
	.st2{opacity:0.2;fill:#FFFFFF;enable-background:new    ;}
</style>
<line class="st0" x1="1.4" y1="25.3" x2="435.4" y2="25.3"/>
<path class="st0" d="M308.9,69.2"/>
<path class="st0" d="M202.5,69.2"/>
<path class="st1" d="M7.4,12.3H5.5l-4-4.2v4.2H0V0h1.5v7.4l3.8-3.9h2L3.1,7.8L7.4,12.3z"/>
<path class="st1" d="M18.8,3.3c0.9,0,1.8,0.3,2.4,1c0.6,0.7,1,1.6,0.9,2.6v5.4h-1.5V6.9c0-0.6-0.1-1.2-0.5-1.6
	c-0.4-0.4-0.9-0.6-1.4-0.6c-0.6,0-1.2,0.2-1.6,0.7c-0.4,0.6-0.6,1.3-0.6,2v4.9h-1.5V6.9c0-0.6-0.1-1.1-0.5-1.6
	c-0.3-0.4-0.8-0.6-1.4-0.6c-0.6,0-1.2,0.2-1.6,0.7c-0.5,0.6-0.7,1.3-0.6,2v4.9H9.3V3.5h1.5v1.2c0.5-0.9,1.5-1.5,2.6-1.4
	c1.1-0.1,2.1,0.5,2.6,1.5C16.6,3.8,17.6,3.2,18.8,3.3z"/>
<path class="st1" d="M9.4,52.9c-0.9,1.3-2.3,2-3.9,1.9c-1.5,0.1-3-0.7-3.9-1.9c-1-1.5-1.4-3.3-1.3-5.1c-0.1-1.8,0.4-3.6,1.4-5.2
	c0.9-1.3,2.3-2,3.9-1.9c1.5-0.1,3,0.7,3.9,1.9c1,1.5,1.5,3.3,1.4,5.2C10.9,49.6,10.4,51.4,9.4,52.9z M3,51.7
	c0.5,0.9,1.5,1.4,2.6,1.4c1,0,2-0.5,2.6-1.4c0.7-1.2,1-2.5,0.9-3.9c0.1-1.4-0.2-2.7-0.9-3.9c-0.5-0.9-1.5-1.4-2.6-1.4
	c-1,0-2,0.5-2.6,1.4c-0.7,1.2-1,2.6-0.9,3.9C2,49.2,2.3,50.5,3,51.7z"/>
<path class="st2" d="M16.8,54.6V40.4h1.7v14.2H16.8z"/>
<path class="st2" d="M25,54.6V40.4h1.7v14.2H25z"/>
<path class="st2" d="M33.2,54.6V40.4h1.7v14.2H33.2z"/>
<path class="st2" d="M41.4,54.6V40.4H43v14.2H41.4z"/>
<path class="st2" d="M49.5,54.6V40.4h1.7v14.2H49.5z"/>
<path class="st2" d="M57.7,54.6V40.4h1.7v14.2H57.7z"/>
<path class="st2" d="M65.9,54.6V40.4h1.7v14.2H65.9z"/>
<path class="st2" d="M74.1,54.6V40.4h1.7v14.2H74.1z"/>
<path class="st2" d="M82.3,54.6V40.4H84v14.2H82.3z"/>
<path class="st1" d="M93,41h1.6v13.6h-1.8V42.9l-2.9,0.8l-0.4-1.5L93,41z"/>
<path class="st1" d="M110,52.9c-1.6,2.1-4.7,2.6-6.8,0.9c-0.3-0.3-0.7-0.6-0.9-0.9c-1-1.5-1.5-3.3-1.4-5.1c-0.1-1.8,0.4-3.6,1.4-5.2
	c1.6-2.1,4.7-2.6,6.8-0.9c0.3,0.3,0.7,0.6,0.9,0.9c1,1.5,1.5,3.3,1.4,5.2C111.5,49.6,111,51.4,110,52.9z M103.6,51.7
	c0.5,0.9,1.5,1.4,2.6,1.4c1,0,2-0.5,2.6-1.4c0.7-1.2,1-2.5,0.9-3.9c0.1-1.4-0.2-2.7-0.9-3.9c-0.9-1.4-2.8-1.8-4.2-0.9
	c-0.4,0.2-0.7,0.5-0.9,0.9c-0.7,1.2-1,2.6-0.9,3.9C102.6,49.2,102.9,50.5,103.6,51.7z"/>
<path class="st2" d="M117.4,54.6V40.4h1.7v14.2H117.4z"/>
<path class="st2" d="M125.6,54.6V40.4h1.7v14.2H125.6z"/>
<path class="st2" d="M133.8,54.6V40.4h1.7v14.2H133.8z"/>
<path class="st2" d="M141.9,54.6V40.4h1.7v14.2H141.9z"/>
<path class="st2" d="M150.1,54.6V40.4h1.7v14.2H150.1z"/>
<path class="st2" d="M158.3,54.6V40.4h1.7v14.2H158.3z"/>
<path class="st2" d="M166.5,54.6V40.4h1.7v14.2H166.5z"/>
<path class="st2" d="M174.7,54.6V40.4h1.7v14.2H174.7z"/>
<path class="st2" d="M182.8,54.6V40.4h1.7v14.2H182.8z"/>
<path class="st1" d="M190.4,54.6v-1.5l4.9-4.9c1.3-1.3,1.9-2.4,1.9-3.3c0-0.7-0.2-1.3-0.7-1.8c-0.5-0.4-1.1-0.7-1.7-0.6
	c-1.2-0.1-2.4,0.6-2.8,1.7l-1.5-0.9c0.4-0.8,1-1.5,1.8-2c0.8-0.5,1.6-0.7,2.5-0.7c1.1,0,2.2,0.4,3,1.1c0.8,0.8,1.3,1.9,1.3,3
	c0,1.4-0.8,2.9-2.4,4.5l-3.5,3.5h6.2v1.8L190.4,54.6z"/>
<path class="st1" d="M213.7,52.9c-1.6,2.1-4.7,2.6-6.8,0.9c-0.3-0.3-0.7-0.6-0.9-0.9c-1-1.5-1.5-3.3-1.4-5.1
	c-0.1-1.8,0.4-3.6,1.4-5.2c1.6-2.1,4.7-2.6,6.8-0.9c0.3,0.3,0.7,0.6,0.9,0.9c1,1.5,1.5,3.3,1.4,5.2
	C215.2,49.6,214.7,51.4,213.7,52.9z M207.3,51.7c0.5,0.9,1.5,1.4,2.6,1.4c1,0,2-0.5,2.6-1.4c0.7-1.2,1-2.5,0.9-3.9
	c0.1-1.4-0.2-2.7-0.9-3.9c-0.9-1.4-2.7-1.9-4.1-1c-0.4,0.2-0.7,0.6-1,1c-0.7,1.2-1,2.6-0.9,3.9C206.3,49.2,206.6,50.5,207.3,51.7z"
	/>
<path class="st2" d="M221.1,54.6V40.4h1.7v14.2H221.1z"/>
<path class="st2" d="M229.3,54.6V40.4h1.7v14.2H229.3z"/>
<path class="st2" d="M237.5,54.6V40.4h1.7v14.2H237.5z"/>
<path class="st2" d="M245.7,54.6V40.4h1.7v14.2H245.7z"/>
<path class="st2" d="M253.9,54.6V40.4h1.7v14.2H253.9z"/>
<path class="st2" d="M262.1,54.6V40.4h1.7v14.2H262.1z"/>
<path class="st2" d="M270.2,54.6V40.4h1.7v14.2H270.2z"/>
<path class="st2" d="M278.4,54.6V40.4h1.7v14.2H278.4z"/>
<path class="st2" d="M286.6,54.6V40.4h1.7v14.2H286.6z"/>
<path class="st1" d="M299.6,46.6c1,0.2,1.9,0.6,2.6,1.3c0.7,0.7,1,1.7,1,2.7c0.1,1.2-0.4,2.4-1.4,3.1c-0.9,0.8-2.1,1.2-3.3,1.1
	c-1,0-1.9-0.2-2.8-0.7c-0.8-0.4-1.4-1.2-1.7-2l1.5-0.9c0.4,1.3,1.7,2.1,3,1.9c0.7,0,1.5-0.2,2.1-0.7c0.5-0.5,0.8-1.1,0.8-1.8
	c0-0.7-0.3-1.4-0.8-1.9c-0.6-0.5-1.3-0.7-2.1-0.7h-0.5l-0.8-1.2l3.2-4.3h-6.1V41h8.2v1.6L299.6,46.6z"/>
<path class="st1" d="M317.8,52.9c-1.6,2.1-4.7,2.6-6.8,0.9c-0.3-0.3-0.7-0.6-0.9-0.9c-1-1.5-1.5-3.3-1.4-5.1
	c-0.1-1.8,0.4-3.6,1.4-5.2c1.6-2.1,4.7-2.6,6.8-0.9c0.3,0.3,0.7,0.6,0.9,0.9c1,1.5,1.5,3.3,1.4,5.2
	C319.3,49.6,318.8,51.4,317.8,52.9z M311.4,51.7c0.9,1.4,2.8,1.8,4.2,0.9c0.3-0.2,0.6-0.5,0.9-0.9c0.7-1.2,1-2.5,0.9-3.9
	c0.1-1.4-0.2-2.7-0.9-3.9c-0.9-1.4-2.7-1.9-4.1-1c-0.4,0.2-0.7,0.6-1,1c-0.7,1.2-1,2.6-0.9,3.9C310.4,49.2,310.7,50.5,311.4,51.7
	L311.4,51.7z"/>
<path class="st2" d="M325.3,54.6V40.4h1.7v14.2H325.3z"/>
<path class="st2" d="M333.4,54.6V40.4h1.7v14.2H333.4z"/>
<path class="st2" d="M341.6,54.6V40.4h1.7v14.2H341.6z"/>
<path class="st2" d="M349.8,54.6V40.4h1.7v14.2H349.8z"/>
<path class="st2" d="M358,54.6V40.4h1.7v14.2H358z"/>
<path class="st2" d="M366.1,54.6V40.4h1.7v14.2H366.1z"/>
<path class="st2" d="M374.3,54.6V40.4h1.7v14.2H374.3z"/>
<path class="st2" d="M382.5,54.6V40.4h1.7v14.2H382.5z"/>
<path class="st2" d="M390.7,54.6V40.4h1.7v14.2H390.7z"/>
<path class="st1" d="M408.5,50.3V52h-1.7v2.6H405V52h-7v-1.7l4.9-9.4h2l-4.9,9.3h5v-3.9h1.8v3.9H408.5z"/>
<path class="st1" d="M422.8,52.9c-1.6,2.1-4.7,2.6-6.8,0.9c-0.3-0.3-0.7-0.6-0.9-0.9c-1-1.5-1.5-3.3-1.4-5.1
	c-0.1-1.8,0.4-3.6,1.4-5.2c1.6-2.1,4.7-2.6,6.8-0.9c0.3,0.3,0.7,0.6,0.9,0.9c1,1.5,1.5,3.3,1.4,5.2
	C424.2,49.6,423.7,51.4,422.8,52.9z M416.3,51.7c0.9,1.4,2.8,1.8,4.2,0.9c0.3-0.2,0.6-0.5,0.9-0.9c0.7-1.2,1-2.5,0.9-3.9
	c0.1-1.4-0.2-2.7-0.9-3.9c-0.9-1.4-2.7-1.9-4.1-1c-0.4,0.2-0.7,0.6-1,1c-0.7,1.2-1,2.6-0.9,3.9C415.3,49.2,415.6,50.5,416.3,51.7z"
	/>
<path class="st1" d="M438.4,47v1.6H435V52h-1.6v-3.4H430V47h3.4v-3.4h1.6V47H438.4z"/>
</svg>
